<svg width="39" height="48" viewBox="0 0 39 48" fill="none" xmlns="http://www.w3.org/2000/svg">
<path d="M37.2406 23.4284C36.5784 22.9091 35.8079 22.6206 35.0343 22.5519C35.5471 20.989 35.0368 19.1743 33.6335 18.0737C32.9713 17.5544 32.2008 17.266 31.4272 17.1973C31.94 15.6343 31.4297 13.8196 30.0263 12.7191C29.4399 12.2592 28.7686 11.9803 28.0852 11.8763L32.0947 6.76368C33.4475 5.03862 33.1025 2.50233 31.3253 1.10859C29.5481 -0.285149 27.0026 -0.0157059 25.6498 1.70936L11.3106 19.9935L8.56788 14.3696C8.15478 13.5227 7.54083 12.7659 6.79486 12.1809C5.09667 10.8491 2.66628 11.1078 1.36741 12.764C0.74068 13.5632 0.473768 14.5638 0.612714 15.5845L3.10018 33.8672C3.66097 37.9999 5.8075 41.7165 9.13946 44.3296C14.9141 48.8582 23.1889 47.9823 27.5847 42.3771L38.01 29.0835C39.3629 27.3584 39.0178 24.8221 37.2406 23.4284ZM25.9734 41.1135C22.2534 45.8569 15.2512 46.5967 10.3643 42.7642C7.46258 40.4886 5.59622 37.2543 5.10929 33.6546L2.62024 15.3706C2.55286 14.8858 2.68063 14.4077 2.98603 14.0182C3.60172 13.2332 4.75951 13.1106 5.56831 13.7449C6.06617 14.1353 6.47294 14.6387 6.74996 15.2045L10.2165 22.3079C10.3718 22.6243 10.6796 22.8455 11.0265 22.8877C11.3749 22.9311 11.7174 22.793 11.9296 22.5224L27.261 2.97297C27.9369 2.11121 29.2093 1.9751 30.0987 2.67259C30.9881 3.37008 31.1592 4.63838 30.4834 5.50007L18.8315 20.3577C18.493 20.7893 18.5792 21.4227 19.0239 21.7715C19.4686 22.1202 20.1043 22.0529 20.4428 21.6213L25.9621 14.5835C26.6379 13.7217 27.9104 13.5856 28.7998 14.2831C29.6892 14.9806 29.8602 16.2489 29.1845 17.1106L23.6652 24.1484C23.3267 24.58 23.4128 25.2134 23.8575 25.5622C24.3022 25.9109 24.9379 25.8436 25.2764 25.412L29.5692 19.9381C30.2451 19.0764 31.5175 18.9403 32.4069 19.6377C33.2963 20.3352 33.4674 21.6035 32.7916 22.4652L28.4988 27.9391C28.1603 28.3707 28.2465 29.0041 28.6912 29.3529C29.1359 29.7016 29.7715 29.6344 30.1101 29.2027L33.1764 25.2928C33.8522 24.431 35.1247 24.2949 36.0141 24.9924C36.9034 25.6899 37.0745 26.9582 36.3988 27.8199L25.9734 41.1135Z" fill="#FFF3F3"/>
</svg>
